<?xml version="1.0" encoding="UTF-8"?>
<svg xmlns="http://www.w3.org/2000/svg" xmlns:xlink="http://www.w3.org/1999/xlink" viewBox="0 0 1024 500">
  <defs>
    <style>
      .cls-1 {
        letter-spacing: -.08em;
      }

      .cls-1, .cls-2, .cls-3, .cls-4, .cls-5, .cls-6, .cls-7 {
        font-family: Rubik-Light, Rubik;
        font-weight: 300;
      }

      .cls-8 {
        letter-spacing: .05em;
      }

      .cls-2 {
        letter-spacing: .09em;
      }

      .cls-9 {
        letter-spacing: .1em;
      }

      .cls-10 {
        letter-spacing: .1em;
      }

      .cls-11 {
        clip-path: url(#clippath);
      }

      .cls-12, .cls-13, .cls-14, .cls-15, .cls-16, .cls-17, .cls-18, .cls-19, .cls-20, .cls-21, .cls-22, .cls-23, .cls-24, .cls-25, .cls-26, .cls-27, .cls-28, .cls-29, .cls-30, .cls-31, .cls-32, .cls-33, .cls-34, .cls-35, .cls-36, .cls-37, .cls-38, .cls-39, .cls-40, .cls-41, .cls-42, .cls-43, .cls-44, .cls-45, .cls-46, .cls-47, .cls-48, .cls-49, .cls-50, .cls-51, .cls-52, .cls-53, .cls-54, .cls-55, .cls-56, .cls-57, .cls-58 {
        stroke-width: 0px;
      }

      .cls-12, .cls-59 {
        fill: none;
      }

      .cls-60 {
        font-size: 25.78px;
      }

      .cls-60, .cls-61, .cls-62, .cls-58 {
        fill: #fff;
      }

      .cls-60, .cls-62 {
        font-family: Rubik-Bold, Rubik;
        font-weight: 700;
      }

      .cls-63 {
        letter-spacing: .09em;
      }

      .cls-13 {
        fill: url(#linear-gradient);
      }

      .cls-14 {
        fill: url(#linear-gradient-38);
      }

      .cls-15 {
        fill: url(#linear-gradient-33);
      }

      .cls-16 {
        fill: url(#linear-gradient-29);
      }

      .cls-17 {
        fill: url(#linear-gradient-32);
      }

      .cls-18 {
        fill: url(#linear-gradient-30);
      }

      .cls-19 {
        fill: url(#linear-gradient-31);
      }

      .cls-20 {
        fill: url(#linear-gradient-36);
      }

      .cls-21 {
        fill: url(#linear-gradient-39);
      }

      .cls-22 {
        fill: url(#linear-gradient-34);
      }

      .cls-23 {
        fill: url(#linear-gradient-37);
      }

      .cls-24 {
        fill: url(#linear-gradient-35);
      }

      .cls-25 {
        fill: url(#linear-gradient-28);
      }

      .cls-26 {
        fill: url(#linear-gradient-25);
      }

      .cls-27 {
        fill: url(#linear-gradient-11);
      }

      .cls-28 {
        fill: url(#linear-gradient-12);
      }

      .cls-29 {
        fill: url(#linear-gradient-13);
      }

      .cls-30 {
        fill: url(#linear-gradient-10);
      }

      .cls-31 {
        fill: url(#linear-gradient-17);
      }

      .cls-32 {
        fill: url(#linear-gradient-16);
      }

      .cls-33 {
        fill: url(#linear-gradient-19);
      }

      .cls-34 {
        fill: url(#linear-gradient-15);
      }

      .cls-35 {
        fill: url(#linear-gradient-23);
      }

      .cls-36 {
        fill: url(#linear-gradient-21);
      }

      .cls-37 {
        fill: url(#linear-gradient-18);
      }

      .cls-38 {
        fill: url(#linear-gradient-14);
      }

      .cls-39 {
        fill: url(#linear-gradient-22);
      }

      .cls-40 {
        fill: url(#linear-gradient-20);
      }

      .cls-41 {
        fill: url(#linear-gradient-27);
      }

      .cls-42 {
        fill: url(#linear-gradient-24);
      }

      .cls-43 {
        fill: url(#linear-gradient-26);
      }

      .cls-44 {
        fill: url(#linear-gradient-45);
      }

      .cls-45 {
        fill: url(#linear-gradient-44);
      }

      .cls-46 {
        fill: url(#linear-gradient-42);
      }

      .cls-47 {
        fill: url(#linear-gradient-43);
      }

      .cls-48 {
        fill: url(#linear-gradient-40);
      }

      .cls-49 {
        fill: url(#linear-gradient-41);
      }

      .cls-64 {
        letter-spacing: .09em;
      }

      .cls-64, .cls-65, .cls-66, .cls-67, .cls-68 {
        font-family: Rubik-Medium, Rubik;
        font-weight: 500;
      }

      .cls-3 {
        letter-spacing: .04em;
      }

      .cls-61 {
        font-size: 20px;
      }

      .cls-69 {
        mix-blend-mode: overlay;
      }

      .cls-70 {
        letter-spacing: .4em;
      }

      .cls-4, .cls-65 {
        letter-spacing: .1em;
      }

      .cls-71 {
        letter-spacing: .42em;
      }

      .cls-5, .cls-66 {
        letter-spacing: .1em;
      }

      .cls-6 {
        letter-spacing: .08em;
      }

      .cls-59 {
        stroke: #fff;
        stroke-miterlimit: 10;
      }

      .cls-62 {
        font-size: 27.83px;
      }

      .cls-50 {
        fill: url(#linear-gradient-4);
      }

      .cls-51 {
        fill: url(#linear-gradient-2);
      }

      .cls-52 {
        fill: url(#linear-gradient-3);
      }

      .cls-53 {
        fill: url(#linear-gradient-8);
      }

      .cls-54 {
        fill: url(#linear-gradient-9);
      }

      .cls-55 {
        fill: url(#linear-gradient-7);
      }

      .cls-56 {
        fill: url(#linear-gradient-5);
      }

      .cls-57 {
        fill: url(#linear-gradient-6);
      }

      .cls-7 {
        letter-spacing: .07em;
      }

      .cls-72 {
        isolation: isolate;
      }

      .cls-73 {
        letter-spacing: .39em;
      }

      .cls-67 {
        letter-spacing: .04em;
      }

      .cls-68 {
        letter-spacing: .09em;
      }
    </style>
    <clipPath id="clippath">
      <rect id="SVGID" class="cls-12" x="-206.35" y="-27.02" width="1436.69" height="554.03"/>
    </clipPath>
    <linearGradient id="linear-gradient" x1="483.02" y1="567.25" x2="483.02" y2="-67.09" gradientUnits="userSpaceOnUse">
      <stop offset="0" stop-color="#2b3990"/>
      <stop offset="1" stop-color="#be1e2d"/>
    </linearGradient>
    <linearGradient id="linear-gradient-2" x1="-5786.51" y1="3767.75" x2="-5784.13" y2="3765.37" gradientTransform="translate(-572106.95 -452055.9) rotate(-180) scale(99 -120)" gradientUnits="userSpaceOnUse">
      <stop offset="0" stop-color="#82aa8e"/>
      <stop offset="1" stop-color="#5b7fad"/>
    </linearGradient>
    <linearGradient id="linear-gradient-3" x1="-5784.48" y1="3770.68" x2="-5782" y2="3768.19" gradientTransform="translate(-883792.58 -493889.11) rotate(-180) scale(153 -131)" gradientUnits="userSpaceOnUse">
      <stop offset="0" stop-color="#4678ad"/>
      <stop offset="1" stop-color="#5b7fad"/>
    </linearGradient>
    <linearGradient id="linear-gradient-4" x1="-5784.14" y1="3762.24" x2="-5781.65" y2="3759.75" gradientTransform="translate(-814612.99 -364434.19) rotate(-180) scale(141 -97)" gradientUnits="userSpaceOnUse">
      <stop offset="0" stop-color="#27689e"/>
      <stop offset="1" stop-color="#27689e"/>
    </linearGradient>
    <linearGradient id="linear-gradient-5" x1="-5784.4" y1="3757.99" x2="-5781.89" y2="3755.48" gradientTransform="translate(-653033.97 -330229.57) rotate(-180) scale(113 -88)" gradientUnits="userSpaceOnUse">
      <stop offset="0" stop-color="#27689e"/>
      <stop offset="1" stop-color="#5b7fad"/>
    </linearGradient>
    <linearGradient id="linear-gradient-6" x1="-5784.82" y1="3717.84" x2="-5782.39" y2="3715.41" gradientTransform="translate(-653033.97 -170511.32) rotate(-180) scale(113 -46)" gradientUnits="userSpaceOnUse">
      <stop offset="0" stop-color="#5b7fad"/>
      <stop offset="1" stop-color="#5b7fad"/>
    </linearGradient>
    <linearGradient id="linear-gradient-7" x1="-5785.26" y1="3762.79" x2="-5782.86" y2="3760.4" gradientTransform="translate(-566426.24 -356750.61) rotate(-180) scale(98 -95)" gradientUnits="userSpaceOnUse">
      <stop offset="0" stop-color="#82aa8e"/>
      <stop offset="1" stop-color="#e0ecb7"/>
    </linearGradient>
    <linearGradient id="linear-gradient-8" x1="-5784.83" y1="3749.07" x2="-5782.36" y2="3746.61" gradientTransform="translate(-883792.58 -288518.36) rotate(-180) scale(153 -77)" xlink:href="#linear-gradient-4"/>
    <linearGradient id="linear-gradient-9" x1="-5783.89" y1="3766.05" x2="-5781.44" y2="3763.61" gradientTransform="translate(-878052.86 -413960.98) rotate(-180) scale(152 -110)" gradientUnits="userSpaceOnUse">
      <stop offset="0" stop-color="#4678ad"/>
      <stop offset="1" stop-color="#27689e"/>
    </linearGradient>
    <linearGradient id="linear-gradient-10" x1="-5817.64" y1="3738.73" x2="-5815.17" y2="3736.26" gradientTransform="translate(-173456.6 -223700.4) rotate(-180) scale(30 -60)" gradientUnits="userSpaceOnUse">
      <stop offset="0" stop-color="#004e7f"/>
      <stop offset="1" stop-color="#004e7f"/>
    </linearGradient>
    <linearGradient id="linear-gradient-11" x1="-5800.08" y1="3685.53" x2="-5797.61" y2="3683.06" gradientTransform="translate(-300522.34 -121065.53) rotate(-180) scale(52 -33)" xlink:href="#linear-gradient-10"/>
    <linearGradient id="linear-gradient-12" x1="-5792.95" y1="3739.77" x2="-5790.52" y2="3737.34" gradientTransform="translate(-329613.91 -242864.86) rotate(-180) scale(57 -65)" gradientUnits="userSpaceOnUse">
      <stop offset="0" stop-color="#4678ad"/>
      <stop offset="1" stop-color="#4678ad"/>
    </linearGradient>
    <linearGradient id="linear-gradient-13" x1="-5785.84" y1="3773.29" x2="-5783.42" y2="3770.87" gradientTransform="translate(-537539.66 -505134.98) rotate(-180) scale(93 -134)" xlink:href="#linear-gradient-5"/>
    <linearGradient id="linear-gradient-14" x1="-5788.2" y1="3772.85" x2="-5785.73" y2="3770.37" gradientTransform="translate(-422082.36 -505134.98) rotate(-180) scale(73 -134)" gradientUnits="userSpaceOnUse">
      <stop offset="0" stop-color="#5b7fad"/>
      <stop offset="1" stop-color="#82aa8e"/>
    </linearGradient>
    <linearGradient id="linear-gradient-15" x1="-5783.7" y1="3765.1" x2="-5781.25" y2="3762.66" gradientTransform="translate(-479979.51 -402548.11) rotate(-180) scale(83 -107)" gradientUnits="userSpaceOnUse">
      <stop offset="0" stop-color="#82aa8e"/>
      <stop offset="1" stop-color="#82aa8e"/>
    </linearGradient>
    <linearGradient id="linear-gradient-16" x1="-5784.72" y1="3747.57" x2="-5782.27" y2="3745.13" gradientTransform="translate(-878052.86 -273236.19) rotate(-180) scale(152 -73)" xlink:href="#linear-gradient-4"/>
    <linearGradient id="linear-gradient-17" x1="-5799.62" y1="3734.37" x2="-5797.12" y2="3731.87" gradientTransform="translate(-300522.34 -212342.53) rotate(-180) scale(52 -57)" gradientUnits="userSpaceOnUse">
      <stop offset="0" stop-color="#004e7f"/>
      <stop offset="1" stop-color="#27689e"/>
    </linearGradient>
    <linearGradient id="linear-gradient-18" x1="-5788.69" y1="3762.18" x2="-5786.22" y2="3759.71" gradientTransform="translate(-554668.81 -364434.19) rotate(-180) scale(96 -97)" gradientUnits="userSpaceOnUse">
      <stop offset="0" stop-color="#004e7f"/>
      <stop offset="1" stop-color="#82aa8e"/>
    </linearGradient>
    <linearGradient id="linear-gradient-19" x1="-5781.15" y1="3764.45" x2="-5778.65" y2="3761.95" gradientTransform="translate(-676390.83 -371956.77) rotate(-180) scale(117 -99)" gradientUnits="userSpaceOnUse">
      <stop offset="0" stop-color="#e0ecb7"/>
      <stop offset="1" stop-color="#82aa8e"/>
    </linearGradient>
    <linearGradient id="linear-gradient-20" x1="-5784.45" y1="3769.08" x2="-5781.96" y2="3766.59" gradientTransform="translate(-543408.38 -440496.02) rotate(-180) scale(94 -117)" xlink:href="#linear-gradient-19"/>
    <linearGradient id="linear-gradient-21" x1="-5787.64" y1="3766.98" x2="-5785.13" y2="3764.46" gradientTransform="translate(-387501.06 -417688.27) rotate(-180) scale(67 -111)" xlink:href="#linear-gradient-6"/>
    <linearGradient id="linear-gradient-22" x1="-5786.36" y1="3750.95" x2="-5783.92" y2="3748.5" gradientTransform="translate(-404885.21 -288410.36) rotate(-180) scale(70 -77)" xlink:href="#linear-gradient-14"/>
    <linearGradient id="linear-gradient-23" x1="-5786.26" y1="3750.78" x2="-5783.76" y2="3748.28" gradientTransform="translate(-399109.5 -276929.48) rotate(-180) scale(69 -74)" xlink:href="#linear-gradient-7"/>
    <linearGradient id="linear-gradient-24" x1="-5785.29" y1="3750.05" x2="-5782.85" y2="3747.61" gradientTransform="translate(-404885.21 -276998.48) rotate(-180) scale(70 -74)" xlink:href="#linear-gradient-19"/>
    <linearGradient id="linear-gradient-25" x1="-5790.39" y1="3762.26" x2="-5787.94" y2="3759.81" gradientTransform="translate(-341258.34 -356750.61) rotate(-180) scale(59 -95)" gradientUnits="userSpaceOnUse">
      <stop offset="0" stop-color="#e0ecb7"/>
      <stop offset="1" stop-color="#e0ecb7"/>
    </linearGradient>
    <linearGradient id="linear-gradient-26" x1="-5784.76" y1="3647.27" x2="-5782.27" y2="3644.78" gradientTransform="translate(-543408.38 -90666.19) rotate(-180) scale(94 -25)" xlink:href="#linear-gradient-14"/>
    <linearGradient id="linear-gradient-27" x1="-5784.72" y1="3751.1" x2="-5782.29" y2="3748.66" gradientTransform="translate(-474158.79 -276929.48) rotate(-180) scale(82 -74)" xlink:href="#linear-gradient-19"/>
    <linearGradient id="linear-gradient-28" x1="-5783.11" y1="3773.79" x2="-5780.71" y2="3771.39" gradientTransform="translate(-705092.4 -547094.19) rotate(-180) scale(122 -145)" xlink:href="#linear-gradient-15"/>
    <linearGradient id="linear-gradient-29" x1="-5782.76" y1="3740.58" x2="-5780.32" y2="3738.15" gradientTransform="translate(-705092.4 -246696.15) rotate(-180) scale(122 -66)" xlink:href="#linear-gradient-14"/>
    <linearGradient id="linear-gradient-30" x1="-5787.05" y1="3762.33" x2="-5784.6" y2="3759.89" gradientTransform="translate(-387501.06 -375940.07) rotate(-180) scale(67 -100)" xlink:href="#linear-gradient-15"/>
    <linearGradient id="linear-gradient-31" x1="-5783.37" y1="3761.45" x2="-5780.91" y2="3758.99" gradientTransform="translate(-583924.38 -375940.07) rotate(-180) scale(101 -100)" xlink:href="#linear-gradient-7"/>
    <linearGradient id="linear-gradient-32" x1="-5780.52" y1="3758.38" x2="-5778.05" y2="3755.91" gradientTransform="translate(-1109415.47 -360830.9) rotate(-180) scale(192 -96)" xlink:href="#linear-gradient-25"/>
    <linearGradient id="linear-gradient-33" x1="-5782.34" y1="3739.38" x2="-5779.88" y2="3736.93" gradientTransform="translate(-583924.38 -246761.15) rotate(-180) scale(101 -66)" xlink:href="#linear-gradient-25"/>
    <linearGradient id="linear-gradient-34" x1="-5783.82" y1="3759.25" x2="-5781.41" y2="3756.83" gradientTransform="translate(-814612.99 -330165.57) rotate(-180) scale(141 -88)" xlink:href="#linear-gradient-17"/>
    <linearGradient id="linear-gradient-35" x1="-5806.13" y1="3758.8" x2="-5803.72" y2="3756.38" gradientTransform="translate(-190971.75 -330165.57) rotate(-180) scale(33 -88)" xlink:href="#linear-gradient-4"/>
    <linearGradient id="linear-gradient-36" x1="-5786.89" y1="3765.43" x2="-5784.48" y2="3763.02" gradientTransform="translate(-606711.25 -413960.98) rotate(-180) scale(105 -110)" xlink:href="#linear-gradient-9"/>
    <linearGradient id="linear-gradient-37" x1="-5786.38" y1="3773.96" x2="-5783.93" y2="3771.51" gradientTransform="translate(-606711.25 -539470.6) rotate(-180) scale(105 -143)" xlink:href="#linear-gradient-12"/>
    <linearGradient id="linear-gradient-38" x1="-5788.89" y1="3759.14" x2="-5786.48" y2="3756.73" gradientTransform="translate(-473904.79 -341660.44) rotate(-180) scale(82 -91)" xlink:href="#linear-gradient-4"/>
    <linearGradient id="linear-gradient-39" x1="-5786.85" y1="3773.56" x2="-5784.43" y2="3771.13" gradientTransform="translate(-572106.95 -539470.6) rotate(-180) scale(99 -143)" xlink:href="#linear-gradient-2"/>
    <linearGradient id="linear-gradient-40" x1="-5807.54" y1="3758.6" x2="-5805.09" y2="3756.14" gradientTransform="translate(-185189.03 -341660.44) rotate(-180) scale(32 -91)" xlink:href="#linear-gradient-4"/>
    <linearGradient id="linear-gradient-41" x1="-5798.36" y1="3740.29" x2="-5795.93" y2="3737.86" gradientTransform="translate(-254497.61 -242864.86) rotate(-180) scale(44 -65)" xlink:href="#linear-gradient-4"/>
    <linearGradient id="linear-gradient-42" x1="-5805.82" y1="3767.82" x2="-5803.28" y2="3765.28" gradientTransform="translate(-190976.75 -452055.9) rotate(-180) scale(33 -120)" xlink:href="#linear-gradient-15"/>
    <linearGradient id="linear-gradient-43" x1="-5796.75" y1="3768" x2="-5794.21" y2="3765.46" gradientTransform="translate(-260317.33 -452036.9) rotate(-180) scale(45 -120)" xlink:href="#linear-gradient-6"/>
    <linearGradient id="linear-gradient-44" x1="-5789.99" y1="3773.85" x2="-5787.49" y2="3771.35" gradientTransform="translate(-387384.06 -547094.19) rotate(-180) scale(67 -145)" xlink:href="#linear-gradient-15"/>
    <linearGradient id="linear-gradient-45" x1="-5796.26" y1="3754.72" x2="-5793.79" y2="3752.25" gradientTransform="translate(-364013.2 -295924.94) rotate(-180) scale(63 -79)" xlink:href="#linear-gradient-10"/>
  </defs>
  <g class="cls-72">
    <g id="Layer_1" data-name="Layer 1">
      <g class="cls-11">
        <rect class="cls-13" x="-259.21" y="-67.09" width="1484.47" height="634.34"/>
        <g class="cls-69">
          <polygon id="triangle36" class="cls-51" points="767.88 -188.2 610.16 -226.41 534.83 79.27 767.88 -188.2"/>
          <polygon id="triangle36-2" data-name="triangle36" class="cls-52" points="1245.77 58.89 885.59 -17.53 1076.27 -274.81 1245.77 58.89"/>
          <polygon id="triangle36-3" data-name="triangle36" class="cls-50" points="942.09 509.77 610.16 407.87 803.2 262.68 942.09 509.77"/>
          <polygon id="triangle36-4" data-name="triangle36" class="cls-56" points="610.16 407.87 344.15 469.01 563.08 244.85 610.16 407.87"/>
          <polygon id="triangle36-5" data-name="triangle36" class="cls-57" points="610.16 407.87 344.15 469.01 544.25 525.05 610.16 407.87"/>
          <polygon id="triangle36-6" data-name="triangle36" class="cls-55" points="344.15 469.01 313.54 711.01 544.25 525.05 344.15 469.01"/>
          <polygon id="triangle36-7" data-name="triangle36" class="cls-53" points="1245.77 58.89 885.59 -17.53 1161.02 178.61 1245.77 58.89"/>
          <polygon id="triangle36-8" data-name="triangle36" class="cls-54" points="885.59 -17.53 803.2 262.68 1161.02 178.61 885.59 -17.53"/>
          <polygon id="triangle36-9" data-name="triangle36" class="cls-30" points="1064.5 481.75 1015.06 634.59 993.88 565.81 1064.5 481.75"/>
          <polygon id="triangle36-10" data-name="triangle36" class="cls-27" points="1064.5 481.75 942.09 509.77 993.88 565.81 1064.5 481.75"/>
          <polygon id="triangle36-11" data-name="triangle36" class="cls-28" points="563.08 244.85 534.83 79.27 428.89 127.67 563.08 244.85"/>
          <polygon id="triangle36-12" data-name="triangle36" class="cls-29" points="563.08 244.85 344.15 469.01 428.89 127.67 563.08 244.85"/>
          <polygon id="triangle36-13" data-name="triangle36" class="cls-38" points="428.89 127.67 344.15 469.01 257.05 170.97 428.89 127.67"/>
          <polygon id="triangle36-14" data-name="triangle36" class="cls-34" points="-41.92 277.96 -96.07 5.4 99.32 257.58 -41.92 277.96"/>
          <polygon id="triangle36-15" data-name="triangle36" class="cls-32" points="1161.02 178.61 803.2 262.68 1029.19 364.57 1161.02 178.61"/>
          <polygon id="triangle36-16" data-name="triangle36" class="cls-31" points="1064.5 481.75 942.09 509.77 1029.19 364.57 1064.5 481.75"/>
          <polygon id="triangle36-17" data-name="triangle36" class="cls-37" points="942.09 509.77 803.2 262.68 1029.19 364.57 942.09 509.77"/>
          <polygon id="triangle36-18" data-name="triangle36" class="cls-33" points="-39.57 466.46 -263.21 718.65 12.22 642.23 -39.57 466.46"/>
          <polygon id="triangle36-19" data-name="triangle36" class="cls-40" points="344.15 469.01 257.05 170.97 122.86 453.73 344.15 469.01"/>
          <polygon id="triangle36-20" data-name="triangle36" class="cls-36" points="257.05 170.97 99.32 257.58 122.86 453.73 257.05 170.97"/>
          <polygon id="triangle36-21" data-name="triangle36" class="cls-39" points="99.32 257.58 -41.92 277.96 122.86 453.73 99.32 257.58"/>
          <polygon id="triangle36-22" data-name="triangle36" class="cls-35" points="12.22 642.23 -39.57 466.46 122.86 453.73 12.22 642.23"/>
          <polygon id="triangle36-23" data-name="triangle36" class="cls-42" points="-39.57 466.46 -41.92 277.96 122.86 453.73 -39.57 466.46"/>
          <polygon id="triangle36-24" data-name="triangle36" class="cls-26" points="344.15 469.01 313.54 711.01 205.26 517.41 344.15 469.01"/>
          <polygon id="triangle36-25" data-name="triangle36" class="cls-43" points="344.15 469.01 122.86 453.73 205.26 517.41 344.15 469.01"/>
          <polygon id="triangle36-26" data-name="triangle36" class="cls-41" points="122.86 453.73 12.22 642.23 205.26 517.41 122.86 453.73"/>
          <polygon id="triangle36-27" data-name="triangle36" class="cls-25" points="428.89 127.67 374.75 -241.69 141.7 2.85 428.89 127.67"/>
          <polygon id="triangle36-28" data-name="triangle36" class="cls-16" points="428.89 127.67 257.05 170.97 141.7 2.85 428.89 127.67"/>
          <polygon id="triangle36-29" data-name="triangle36" class="cls-18" points="257.05 170.97 99.32 257.58 141.7 2.85 257.05 170.97"/>
          <polygon id="triangle36-30" data-name="triangle36" class="cls-19" points="99.32 257.58 -96.07 5.4 141.7 2.85 99.32 257.58"/>
          <polygon id="triangle36-31" data-name="triangle36" class="cls-17" points="374.75 -241.69 141.7 2.85 -77.24 -162.73 374.75 -241.69"/>
          <polygon id="triangle36-32" data-name="triangle36" class="cls-15" points="141.7 2.85 -96.07 5.4 -77.24 -162.73 141.7 2.85"/>
          <polygon id="triangle36-33" data-name="triangle36" class="cls-22" points="942.09 509.77 610.16 407.87 621.93 632.04 942.09 509.77"/>
          <polygon id="triangle36-34" data-name="triangle36" class="cls-24" points="610.16 407.87 544.25 525.05 621.93 632.04 610.16 407.87"/>
          <polygon id="triangle36-35" data-name="triangle36" class="cls-20" points="885.59 -17.53 803.2 262.68 638.41 176.07 885.59 -17.53"/>
          <polygon id="triangle36-36" data-name="triangle36" class="cls-23" points="885.59 -17.53 767.88 -188.2 638.41 176.07 885.59 -17.53"/>
          <polygon id="triangle36-37" data-name="triangle36" class="cls-14" points="803.2 262.68 610.16 407.87 638.41 176.07 803.2 262.68"/>
          <polygon id="triangle36-38" data-name="triangle36" class="cls-21" points="767.88 -188.2 534.83 79.27 638.41 176.07 767.88 -188.2"/>
          <polygon id="triangle36-39" data-name="triangle36" class="cls-48" points="610.16 407.87 563.08 244.85 638.41 176.07 610.16 407.87"/>
          <polygon id="triangle36-40" data-name="triangle36" class="cls-49" points="563.08 244.85 534.83 79.27 638.41 176.07 563.08 244.85"/>
          <polygon id="triangle36-41" data-name="triangle36" class="cls-46" points="610.16 -226.41 534.83 79.27 532.47 -178.01 610.16 -226.41"/>
          <polygon id="triangle36-42" data-name="triangle36" class="cls-47" points="534.83 79.27 428.89 127.67 532.47 -178.01 534.83 79.27"/>
          <polygon id="triangle36-43" data-name="triangle36" class="cls-45" points="428.89 127.67 374.75 -241.69 532.47 -178.01 428.89 127.67"/>
          <polygon id="triangle36-44" data-name="triangle36" class="cls-44" points="1064.5 481.75 1015.06 634.59 1163.37 682.99 1064.5 481.75"/>
        </g>
      </g>
      <g>
        <line class="cls-59" x1="299.19" y1="362.43" x2="344.26" y2="362.43"/>
        <line class="cls-59" x1="676.63" y1="362.43" x2="721.7" y2="362.43"/>
        <g>
          <text class="cls-60" transform="translate(365.28 305.64)"><tspan class="cls-73" x="0" y="0">K</tspan><tspan class="cls-71" x="27.01" y="0">ONFERENCI</tspan><tspan class="cls-70" x="273" y="0">A</tspan></text>
          <g>
            <path class="cls-58" d="m299.31,139.98c-.11-.1-.16-.24-.16-.41v-15.09c0-.17.05-.31.16-.42.11-.11.25-.16.42-.16h1.83c.33,0,.56.15.7.44l4.48,8.34,4.53-8.34c.16-.29.39-.44.7-.44h1.81c.17,0,.31.05.42.16.11.11.16.25.16.42v15.09c0,.17-.05.31-.16.41-.11.1-.25.15-.42.15h-1.95c-.16,0-.29-.05-.39-.16-.11-.11-.16-.24-.16-.39v-10.03l-3.25,6.19c-.2.34-.46.51-.79.51h-.95c-.33,0-.59-.17-.79-.51l-3.25-6.19v10.03c0,.15-.05.29-.15.39-.1.11-.24.16-.41.16h-1.95c-.17,0-.31-.05-.42-.15Z"/>
            <path class="cls-58" d="m318.1,139.89c-.66-.32-1.18-.75-1.56-1.29s-.57-1.14-.57-1.78c0-1.05.42-1.9,1.28-2.55.85-.65,2.02-1.09,3.5-1.32l3.18-.46v-.49c0-.68-.17-1.19-.51-1.53-.34-.34-.89-.51-1.65-.51-.51,0-.92.1-1.24.29-.32.19-.57.38-.75.57-.19.2-.31.33-.37.39-.06.19-.18.28-.35.28h-1.79c-.14,0-.26-.05-.36-.14-.1-.09-.15-.22-.15-.37.01-.39.21-.83.57-1.32.36-.49.92-.92,1.68-1.27.76-.35,1.69-.53,2.79-.53,1.83,0,3.16.41,3.99,1.23.83.82,1.25,1.89,1.25,3.22v7.28c0,.15-.05.29-.15.39-.1.11-.24.16-.41.16h-1.88c-.15,0-.29-.05-.39-.16-.11-.11-.16-.24-.16-.39v-.9c-.34.49-.82.9-1.45,1.22s-1.4.48-2.33.48c-.79,0-1.51-.16-2.17-.48Zm5.05-2.56c.54-.56.81-1.37.81-2.43v-.49l-2.32.37c-.9.14-1.58.36-2.03.67-.46.31-.68.69-.68,1.14,0,.49.21.88.63,1.16.42.28.92.42,1.51.42.85,0,1.55-.28,2.09-.83Z"/>
            <path class="cls-58" d="m331.2,144.55c-.85-.46-1.46-.98-1.81-1.56-.36-.59-.53-1.09-.53-1.51,0-.14.06-.26.17-.37.12-.11.24-.16.38-.16h2.02c.14,0,.26.03.36.1.1.07.18.2.24.38.15.42.41.77.75,1.05.35.29.89.43,1.64.43.93,0,1.61-.21,2.05-.63.44-.42.66-1.14.66-2.16v-1.58c-.85,1-2.04,1.51-3.57,1.51-1.61,0-2.82-.49-3.63-1.48-.81-.99-1.25-2.32-1.31-3.99l-.02-.63.02-.63c.06-1.64.5-2.96,1.32-3.97s2.03-1.52,3.62-1.52c.82,0,1.54.15,2.16.46s1.14.73,1.56,1.27v-.93c0-.17.05-.31.16-.42s.24-.16.39-.16h1.88c.15,0,.29.06.39.17.11.12.16.25.16.41l.02,11.17c0,1.71-.48,3.04-1.44,3.99-.96.94-2.4,1.41-4.32,1.41-1.38,0-2.49-.23-3.34-.68Zm5.21-7.77c.44-.56.68-1.24.73-2.04.02-.12.02-.38.02-.77s0-.62-.02-.74c-.05-.82-.29-1.51-.73-2.06-.44-.56-1.1-.83-1.99-.83-1.67,0-2.55,1.03-2.65,3.08l-.02.56c0,1.1.2,1.98.59,2.64.39.66,1.09,1,2.08,1,.88,0,1.54-.28,1.99-.83Z"/>
            <path class="cls-58" d="m344.32,144.39c-.09-.09-.14-.2-.14-.32,0-.14.03-.26.09-.37l1.81-4.29-4.46-10.5c-.06-.14-.09-.25-.09-.32.02-.14.07-.26.16-.36.09-.1.21-.15.35-.15h1.88c.29,0,.5.15.63.44l3.09,7.58,3.18-7.58c.12-.29.33-.44.63-.44h1.86c.12,0,.24.05.34.14s.15.2.15.32c0,.11-.03.23-.09.37l-6.57,15.18c-.14.29-.36.44-.65.44h-1.83c-.12,0-.23-.05-.32-.14Z"/>
            <path class="cls-58" d="m355.7,139.89c-.66-.32-1.18-.75-1.56-1.29s-.57-1.14-.57-1.78c0-1.05.42-1.9,1.28-2.55.85-.65,2.02-1.09,3.5-1.32l3.18-.46v-.49c0-.68-.17-1.19-.51-1.53-.34-.34-.89-.51-1.65-.51-.51,0-.92.1-1.24.29-.32.19-.57.38-.75.57-.19.2-.31.33-.37.39-.06.19-.18.28-.35.28h-1.79c-.14,0-.26-.05-.36-.14-.1-.09-.15-.22-.15-.37.01-.39.21-.83.57-1.32.36-.49.92-.92,1.68-1.27.76-.35,1.69-.53,2.79-.53,1.83,0,3.16.41,3.99,1.23.83.82,1.25,1.89,1.25,3.22v7.28c0,.15-.05.29-.15.39-.1.11-.24.16-.41.16h-1.88c-.15,0-.29-.05-.39-.16-.11-.11-.16-.24-.16-.39v-.9c-.34.49-.82.9-1.45,1.22s-1.4.48-2.33.48c-.79,0-1.51-.16-2.17-.48Zm5.05-2.56c.54-.56.81-1.37.81-2.43v-.49l-2.32.37c-.9.14-1.58.36-2.03.67-.46.31-.68.69-.68,1.14,0,.49.21.88.63,1.16.42.28.92.42,1.51.42.85,0,1.55-.28,2.09-.83Z"/>
            <path class="cls-58" d="m366.86,139.97c-.11-.11-.16-.24-.16-.39v-10.92c0-.15.05-.29.16-.41.11-.12.24-.17.39-.17h1.88c.17,0,.31.05.42.16.11.11.16.25.16.42v.95c.37-.49.84-.87,1.4-1.14.56-.26,1.21-.39,1.94-.39h.95c.17,0,.3.05.41.15.1.1.15.24.15.41v1.67c0,.15-.05.29-.15.39-.1.11-.24.16-.41.16h-1.81c-.73,0-1.3.21-1.72.63-.42.42-.63.99-.63,1.71v6.37c0,.15-.05.29-.16.39-.11.11-.25.16-.42.16h-2.02c-.15,0-.29-.05-.39-.16Z"/>
            <path class="cls-58" d="m379.79,139.97c-.11-.11-.16-.24-.16-.39v-15.09c0-.17.05-.31.15-.42.1-.11.24-.16.41-.16h10.21c.17,0,.31.05.42.16.11.11.16.25.16.42v1.53c0,.17-.05.31-.16.41-.11.1-.25.15-.42.15h-7.64v4.1h7.13c.17,0,.31.05.42.15.11.1.16.24.16.41v1.44c0,.17-.05.31-.16.41-.11.1-.25.15-.42.15h-7.13v4.24h7.82c.17,0,.31.05.42.16.11.11.16.25.16.42v1.53c0,.17-.05.31-.16.41-.11.1-.25.15-.42.15h-10.4c-.16,0-.29-.05-.39-.16Z"/>
            <path class="cls-58" d="m394.88,144.55c-.85-.46-1.46-.98-1.81-1.56-.36-.59-.53-1.09-.53-1.51,0-.14.06-.26.17-.37.12-.11.24-.16.38-.16h2.02c.14,0,.26.03.36.1.1.07.18.2.24.38.15.42.41.77.75,1.05.35.29.89.43,1.64.43.93,0,1.61-.21,2.05-.63.44-.42.66-1.14.66-2.16v-1.58c-.85,1-2.04,1.51-3.57,1.51-1.61,0-2.82-.49-3.63-1.48-.81-.99-1.25-2.32-1.31-3.99l-.02-.63.02-.63c.06-1.64.5-2.96,1.32-3.97s2.03-1.52,3.62-1.52c.82,0,1.54.15,2.16.46s1.14.73,1.56,1.27v-.93c0-.17.05-.31.16-.42s.24-.16.39-.16h1.88c.15,0,.29.06.39.17.11.12.16.25.16.41l.02,11.17c0,1.71-.48,3.04-1.44,3.99-.96.94-2.4,1.41-4.32,1.41-1.38,0-2.49-.23-3.34-.68Zm5.21-7.77c.44-.56.68-1.24.73-2.04.02-.12.02-.38.02-.77s0-.62-.02-.74c-.05-.82-.29-1.51-.73-2.06-.44-.56-1.1-.83-1.99-.83-1.67,0-2.55,1.03-2.65,3.08l-.02.56c0,1.1.2,1.98.59,2.64.39.66,1.09,1,2.08,1,.88,0,1.54-.28,1.99-.83Z"/>
            <path class="cls-58" d="m407.24,138.87c-1.01-1-1.55-2.4-1.61-4.21l-.02-.58.02-.58c.08-1.76.62-3.14,1.64-4.15,1.01-1,2.37-1.51,4.07-1.51,1.83,0,3.24.56,4.24,1.67s1.5,2.6,1.5,4.45v.49c0,.15-.05.29-.16.39-.11.11-.25.16-.42.16h-7.71v.19c.03.85.27,1.56.71,2.14.44.58,1.05.87,1.82.87.91,0,1.65-.36,2.21-1.07.14-.17.25-.28.34-.32.08-.05.21-.07.38-.07h2c.14,0,.26.04.36.13.1.08.15.19.15.31,0,.37-.22.81-.66,1.31-.44.5-1.07.94-1.89,1.31-.82.37-1.77.56-2.86.56-1.72,0-3.08-.5-4.1-1.5Zm6.67-5.81v-.07c0-.91-.23-1.65-.68-2.2-.46-.56-1.09-.83-1.89-.83s-1.43.28-1.88.83-.67,1.29-.67,2.2v.07h5.13Zm-3.92-7.09c0-.12.04-.22.12-.3l1.88-2.29c.15-.17.29-.28.41-.34s.27-.08.45-.08h2.32c.29,0,.44.15.44.44,0,.11-.04.2-.12.28l-2.88,2.36c-.14.11-.27.19-.38.23-.12.05-.27.07-.45.07h-1.42c-.25,0-.37-.12-.37-.37Z"/>
            <path class="cls-58" d="m420.25,139.84c-.79-.35-1.37-.76-1.75-1.23-.38-.47-.57-.88-.57-1.22,0-.15.05-.28.16-.37s.23-.14.37-.14h1.83c.14,0,.26.05.35.16.06.05.22.19.49.42.26.25.57.44.93.58.36.14.75.21,1.18.21.62,0,1.13-.12,1.53-.37.4-.25.6-.59.6-1.02,0-.32-.09-.59-.27-.79-.18-.2-.5-.38-.96-.54s-1.15-.34-2.07-.52c-1.32-.28-2.29-.7-2.91-1.27-.63-.57-.94-1.33-.94-2.27,0-.62.19-1.2.56-1.75.37-.55.92-1,1.66-1.34.73-.35,1.61-.52,2.63-.52s1.93.17,2.69.5c.76.33,1.33.73,1.73,1.18s.59.86.59,1.22c0,.14-.05.26-.15.36-.1.1-.22.15-.36.15h-1.72c-.12,0-.25-.05-.39-.16-.11-.08-.28-.22-.51-.44s-.5-.39-.81-.51c-.31-.12-.67-.19-1.09-.19-.57,0-1.02.12-1.33.37-.32.25-.48.57-.48.97,0,.29.08.53.23.72.16.19.46.36.91.53.45.17,1.12.34,2.02.51,1.49.29,2.55.75,3.19,1.37.64.62.96,1.38.96,2.27,0,1.08-.47,1.96-1.42,2.64-.94.68-2.27,1.02-3.97,1.02-1.16,0-2.14-.17-2.92-.52Z"/>
            <path class="cls-58" d="m429.58,139.97c-.11-.11-.16-.24-.16-.39v-1.32c0-.22.11-.46.33-.74l5.94-7.02h-5.53c-.15,0-.29-.05-.39-.16-.11-.11-.16-.24-.16-.39v-1.3c0-.15.05-.29.16-.39s.24-.16.39-.16h8.8c.17,0,.3.05.41.15.1.1.15.24.15.41v1.41c0,.22-.11.45-.33.69l-5.8,6.98h6.06c.17,0,.3.05.41.15.1.1.15.24.15.41v1.3c0,.15-.05.29-.15.39-.1.11-.24.16-.41.16h-9.47c-.15,0-.29-.05-.39-.16Z"/>
            <path class="cls-58" d="m443.07,139.84c-.79-.35-1.37-.76-1.75-1.23-.38-.47-.57-.88-.57-1.22,0-.15.05-.28.16-.37s.23-.14.37-.14h1.83c.14,0,.26.05.35.16.06.05.22.19.49.42.26.25.57.44.93.58.36.14.75.21,1.18.21.62,0,1.13-.12,1.53-.37.4-.25.6-.59.6-1.02,0-.32-.09-.59-.27-.79-.18-.2-.5-.38-.96-.54s-1.15-.34-2.07-.52c-1.32-.28-2.29-.7-2.91-1.27-.63-.57-.94-1.33-.94-2.27,0-.62.19-1.2.56-1.75.37-.55.92-1,1.66-1.34.73-.35,1.61-.52,2.63-.52s1.93.17,2.69.5c.76.33,1.33.73,1.73,1.18s.59.86.59,1.22c0,.14-.05.26-.15.36-.1.1-.22.15-.36.15h-1.72c-.12,0-.25-.05-.39-.16-.11-.08-.28-.22-.51-.44s-.5-.39-.81-.51c-.31-.12-.67-.19-1.09-.19-.57,0-1.02.12-1.33.37-.32.25-.48.57-.48.97,0,.29.08.53.23.72.16.19.46.36.91.53.45.17,1.12.34,2.02.51,1.49.29,2.55.75,3.19,1.37.64.62.96,1.38.96,2.27,0,1.08-.47,1.96-1.42,2.64-.94.68-2.27,1.02-3.97,1.02-1.16,0-2.14-.17-2.92-.52Z"/>
            <path class="cls-58" d="m453.94,138.87c-1.01-1-1.55-2.4-1.61-4.21l-.02-.58.02-.58c.08-1.76.62-3.14,1.64-4.15,1.01-1,2.37-1.51,4.07-1.51,1.83,0,3.24.56,4.24,1.67s1.5,2.6,1.5,4.45v.49c0,.15-.05.29-.16.39-.11.11-.25.16-.42.16h-7.71v.19c.03.85.27,1.56.71,2.14.44.58,1.05.87,1.82.87.91,0,1.65-.36,2.21-1.07.14-.17.25-.28.34-.32.08-.05.21-.07.38-.07h2c.14,0,.26.04.36.13.1.08.15.19.15.31,0,.37-.22.81-.66,1.31-.44.5-1.07.94-1.89,1.31-.82.37-1.77.56-2.86.56-1.72,0-3.08-.5-4.1-1.5Zm6.67-5.81v-.07c0-.91-.23-1.65-.68-2.2-.46-.56-1.09-.83-1.89-.83s-1.43.28-1.88.83-.67,1.29-.67,2.2v.07h5.13Zm-3.92-7.09c0-.12.04-.22.12-.3l1.88-2.29c.15-.17.29-.28.41-.34s.27-.08.45-.08h2.32c.29,0,.44.15.44.44,0,.11-.04.2-.12.28l-2.88,2.36c-.14.11-.27.19-.38.23-.12.05-.27.07-.45.07h-1.42c-.25,0-.37-.12-.37-.37Z"/>
            <path class="cls-58" d="m467.42,144.55c-.85-.46-1.46-.98-1.81-1.56-.36-.59-.53-1.09-.53-1.51,0-.14.06-.26.17-.37.12-.11.24-.16.38-.16h2.02c.14,0,.26.03.36.1.1.07.18.2.24.38.15.42.41.77.75,1.05.35.29.89.43,1.64.43.93,0,1.61-.21,2.05-.63.44-.42.66-1.14.66-2.16v-1.58c-.85,1-2.04,1.51-3.57,1.51-1.61,0-2.82-.49-3.63-1.48-.81-.99-1.25-2.32-1.31-3.99l-.02-.63.02-.63c.06-1.64.5-2.96,1.32-3.97s2.03-1.52,3.62-1.52c.82,0,1.54.15,2.16.46s1.14.73,1.56,1.27v-.93c0-.17.05-.31.16-.42s.24-.16.39-.16h1.88c.15,0,.29.06.39.17.11.12.16.25.16.41l.02,11.17c0,1.71-.48,3.04-1.44,3.99-.96.94-2.4,1.41-4.32,1.41-1.38,0-2.49-.23-3.34-.68Zm5.21-7.77c.44-.56.68-1.24.73-2.04.02-.12.02-.38.02-.77s0-.62-.02-.74c-.05-.82-.29-1.51-.73-2.06-.44-.56-1.1-.83-1.99-.83-1.67,0-2.55,1.03-2.65,3.08l-.02.56c0,1.1.2,1.98.59,2.64.39.66,1.09,1,2.08,1,.88,0,1.54-.28,1.99-.83Z"/>
            <path class="cls-58" d="m478.77,134.34c-.11-.11-.16-.24-.16-.39v-1.53c0-.17.05-.31.16-.41.11-.1.24-.15.39-.15h7.13c.17,0,.3.05.41.15.1.1.15.24.15.41v1.53c0,.15-.05.29-.15.39-.1.11-.24.16-.41.16h-7.13c-.16,0-.29-.05-.39-.16Z"/>
            <path class="cls-58" d="m491.03,144.55c-.85-.46-1.46-.98-1.81-1.56-.36-.59-.53-1.09-.53-1.51,0-.14.06-.26.17-.37.12-.11.24-.16.38-.16h2.02c.14,0,.26.03.36.1.1.07.18.2.24.38.15.42.41.77.75,1.05.35.29.89.43,1.64.43.93,0,1.61-.21,2.05-.63.44-.42.66-1.14.66-2.16v-1.58c-.85,1-2.04,1.51-3.57,1.51-1.61,0-2.82-.49-3.63-1.48-.81-.99-1.25-2.32-1.31-3.99l-.02-.63.02-.63c.06-1.64.5-2.96,1.32-3.97s2.03-1.52,3.62-1.52c.82,0,1.54.15,2.16.46s1.14.73,1.56,1.27v-.93c0-.17.05-.31.16-.42s.24-.16.39-.16h1.88c.15,0,.29.06.39.17.11.12.16.25.16.41l.02,11.17c0,1.71-.48,3.04-1.44,3.99-.96.94-2.4,1.41-4.32,1.41-1.38,0-2.49-.23-3.34-.68Zm5.21-7.77c.44-.56.68-1.24.73-2.04.02-.12.02-.38.02-.77s0-.62-.02-.74c-.05-.82-.29-1.51-.73-2.06-.44-.56-1.1-.83-1.99-.83-1.67,0-2.55,1.03-2.65,3.08l-.02.56c0,1.1.2,1.98.59,2.64.39.66,1.09,1,2.08,1,.88,0,1.54-.28,1.99-.83Z"/>
            <path class="cls-58" d="m503.62,139.89c-.66-.32-1.18-.75-1.56-1.29s-.57-1.14-.57-1.78c0-1.05.42-1.9,1.28-2.55.85-.65,2.02-1.09,3.5-1.32l3.18-.46v-.49c0-.68-.17-1.19-.51-1.53-.34-.34-.89-.51-1.65-.51-.51,0-.92.1-1.24.29-.32.19-.57.38-.75.57-.19.2-.31.33-.37.39-.06.19-.18.28-.35.28h-1.79c-.14,0-.26-.05-.36-.14-.1-.09-.15-.22-.15-.37.01-.39.21-.83.57-1.32.36-.49.92-.92,1.68-1.27.76-.35,1.69-.53,2.79-.53,1.83,0,3.16.41,3.99,1.23.83.82,1.25,1.89,1.25,3.22v7.28c0,.15-.05.29-.15.39-.1.11-.24.16-.41.16h-1.88c-.15,0-.29-.05-.39-.16-.11-.11-.16-.24-.16-.39v-.9c-.34.49-.82.9-1.45,1.22s-1.4.48-2.33.48c-.79,0-1.51-.16-2.17-.48Zm5.05-2.56c.54-.56.81-1.37.81-2.43v-.49l-2.32.37c-.9.14-1.58.36-2.03.67-.46.31-.68.69-.68,1.14,0,.49.21.88.63,1.16.42.28.92.42,1.51.42.85,0,1.55-.28,2.09-.83Z"/>
            <path class="cls-58" d="m514.17,139.97c-.11-.11-.16-.24-.16-.39v-1.32c0-.22.11-.46.33-.74l5.94-7.02h-5.53c-.15,0-.29-.05-.39-.16-.11-.11-.16-.24-.16-.39v-1.3c0-.15.05-.29.16-.39s.24-.16.39-.16h8.8c.17,0,.3.05.41.15.1.1.15.24.15.41v1.41c0,.22-.11.45-.33.69l-5.8,6.98h6.06c.17,0,.3.05.41.15.1.1.15.24.15.41v1.3c0,.15-.05.29-.15.39-.1.11-.24.16-.41.16h-9.47c-.15,0-.29-.05-.39-.16Z"/>
            <path class="cls-58" d="m526.8,138.86c-.84-1-1.28-2.34-1.35-4.01l-.02-.76.02-.74c.05-1.62.49-2.94,1.33-3.96.84-1.02,2.05-1.53,3.61-1.53s2.69.51,3.57,1.53v-5.14c0-.17.05-.3.16-.41.11-.1.24-.15.39-.15h1.97c.17,0,.31.05.41.15.1.1.15.24.15.41v15.34c0,.15-.05.29-.15.39-.1.11-.24.16-.41.16h-1.83c-.15,0-.29-.05-.39-.16-.11-.11-.16-.24-.16-.39v-.86c-.88,1.1-2.12,1.65-3.71,1.65s-2.76-.5-3.6-1.51Zm6.45-1.83c.43-.57.67-1.27.72-2.11.02-.19.02-.49.02-.9s0-.69-.02-.88c-.03-.77-.27-1.43-.73-1.98-.46-.55-1.12-.82-1.99-.82-1.67,0-2.56,1.03-2.67,3.08l-.02.7.02.7c.11,2.05,1,3.08,2.67,3.08.9,0,1.56-.29,2-.86Z"/>
            <path class="cls-58" d="m540.55,139.89c-.66-.32-1.18-.75-1.56-1.29s-.57-1.14-.57-1.78c0-1.05.42-1.9,1.28-2.55.85-.65,2.02-1.09,3.5-1.32l3.18-.46v-.49c0-.68-.17-1.19-.51-1.53-.34-.34-.89-.51-1.65-.51-.51,0-.92.1-1.24.29-.32.19-.57.38-.75.57-.19.2-.31.33-.37.39-.06.19-.18.28-.35.28h-1.79c-.14,0-.26-.05-.36-.14-.1-.09-.15-.22-.15-.37.01-.39.21-.83.57-1.32.36-.49.92-.92,1.68-1.27.76-.35,1.69-.53,2.79-.53,1.83,0,3.16.41,3.99,1.23.83.82,1.25,1.89,1.25,3.22v7.28c0,.15-.05.29-.15.39-.1.11-.24.16-.41.16h-1.88c-.15,0-.29-.05-.39-.16-.11-.11-.16-.24-.16-.39v-.9c-.34.49-.82.9-1.45,1.22s-1.4.48-2.33.48c-.79,0-1.51-.16-2.17-.48Zm5.05-2.56c.54-.56.81-1.37.81-2.43v-.49l-2.32.37c-.9.14-1.58.36-2.03.67-.46.31-.68.69-.68,1.14,0,.49.21.88.63,1.16.42.28.92.42,1.51.42.85,0,1.55-.28,2.09-.83Z"/>
            <path class="cls-58" d="m553.19,139.84c-.79-.35-1.37-.76-1.75-1.23-.38-.47-.57-.88-.57-1.22,0-.15.05-.28.16-.37s.23-.14.37-.14h1.83c.14,0,.26.05.35.16.06.05.22.19.49.42.26.25.57.44.93.58.36.14.75.21,1.18.21.62,0,1.13-.12,1.53-.37.4-.25.6-.59.6-1.02,0-.32-.09-.59-.27-.79-.18-.2-.5-.38-.96-.54s-1.15-.34-2.07-.52c-1.32-.28-2.29-.7-2.91-1.27-.63-.57-.94-1.33-.94-2.27,0-.62.19-1.2.56-1.75.37-.55.92-1,1.66-1.34.73-.35,1.61-.52,2.63-.52s1.93.17,2.69.5c.76.33,1.33.73,1.73,1.18s.59.86.59,1.22c0,.14-.05.26-.15.36-.1.1-.22.15-.36.15h-1.72c-.12,0-.25-.05-.39-.16-.11-.08-.28-.22-.51-.44s-.5-.39-.81-.51c-.31-.12-.67-.19-1.09-.19-.57,0-1.02.12-1.33.37-.32.25-.48.57-.48.97,0,.29.08.53.23.72.16.19.46.36.91.53.45.17,1.12.34,2.02.51,1.49.29,2.55.75,3.19,1.37.64.62.96,1.38.96,2.27,0,1.08-.47,1.96-1.42,2.64-.94.68-2.27,1.02-3.97,1.02-1.16,0-2.14-.17-2.92-.52Z"/>
            <path class="cls-58" d="m564.3,139.89c-.66-.32-1.18-.75-1.56-1.29s-.57-1.14-.57-1.78c0-1.05.42-1.9,1.28-2.55.85-.65,2.02-1.09,3.5-1.32l3.18-.46v-.49c0-.68-.17-1.19-.51-1.53-.34-.34-.89-.51-1.65-.51-.51,0-.92.1-1.24.29-.32.19-.57.38-.75.57-.19.2-.31.33-.37.39-.06.19-.18.28-.35.28h-1.79c-.14,0-.26-.05-.36-.14-.1-.09-.15-.22-.15-.37.01-.39.21-.83.57-1.32.36-.49.92-.92,1.68-1.27.76-.35,1.69-.53,2.79-.53,1.83,0,3.16.41,3.99,1.23.83.82,1.25,1.89,1.25,3.22v7.28c0,.15-.05.29-.15.39-.1.11-.24.16-.41.16h-1.88c-.15,0-.29-.05-.39-.16-.11-.11-.16-.24-.16-.39v-.9c-.34.49-.82.9-1.45,1.22s-1.4.48-2.33.48c-.79,0-1.51-.16-2.17-.48Zm5.05-2.56c.54-.56.81-1.37.81-2.43v-.49l-2.32.37c-.9.14-1.58.36-2.03.67-.46.31-.68.69-.68,1.14,0,.49.21.88.63,1.16.42.28.92.42,1.51.42.85,0,1.55-.28,2.09-.83Zm-2.95-11.35c0-.12.04-.22.12-.3l1.88-2.29c.15-.17.29-.28.41-.34s.27-.08.45-.08h2.32c.29,0,.44.15.44.44,0,.11-.04.2-.12.28l-2.88,2.36c-.14.11-.27.19-.38.23-.12.05-.27.07-.45.07h-1.42c-.25,0-.37-.12-.37-.37Z"/>
            <path class="cls-58" d="m577.4,144.55c-.85-.46-1.46-.98-1.81-1.56-.36-.59-.53-1.09-.53-1.51,0-.14.06-.26.17-.37.12-.11.24-.16.38-.16h2.02c.14,0,.26.03.36.1.1.07.18.2.24.38.15.42.41.77.75,1.05.35.29.89.43,1.64.43.93,0,1.61-.21,2.05-.63.44-.42.66-1.14.66-2.16v-1.58c-.85,1-2.04,1.51-3.57,1.51-1.61,0-2.82-.49-3.63-1.48-.81-.99-1.25-2.32-1.31-3.99l-.02-.63.02-.63c.06-1.64.5-2.96,1.32-3.97s2.03-1.52,3.62-1.52c.82,0,1.54.15,2.16.46s1.14.73,1.56,1.27v-.93c0-.17.05-.31.16-.42s.24-.16.39-.16h1.88c.15,0,.29.06.39.17.11.12.16.25.16.41l.02,11.17c0,1.71-.48,3.04-1.44,3.99-.96.94-2.4,1.41-4.32,1.41-1.38,0-2.49-.23-3.34-.68Zm5.21-7.77c.44-.56.68-1.24.73-2.04.02-.12.02-.38.02-.77s0-.62-.02-.74c-.05-.82-.29-1.51-.73-2.06-.44-.56-1.1-.83-1.99-.83-1.67,0-2.55,1.03-2.65,3.08l-.02.56c0,1.1.2,1.98.59,2.64.39.66,1.09,1,2.08,1,.88,0,1.54-.28,1.99-.83Z"/>
            <path class="cls-58" d="m590.95,139.03c-.7-.73-1.06-1.81-1.06-3.23v-5.26h-1.83c-.16,0-.29-.06-.39-.17-.11-.12-.16-.25-.16-.41v-1.32c0-.15.05-.29.16-.39.11-.11.24-.16.39-.16h1.83v-3.85c0-.17.05-.3.16-.41.11-.1.24-.15.39-.15h1.88c.17,0,.3.05.41.15.1.1.15.24.15.41v3.85h2.9c.17,0,.31.05.41.15.1.1.15.24.15.41v1.32c0,.17-.05.31-.16.42-.11.11-.24.16-.4.16h-2.9v5.03c0,.66.12,1.17.35,1.51.23.34.62.51,1.16.51h1.6c.16,0,.29.05.4.16.11.11.16.24.16.39v1.44c0,.15-.05.29-.15.39-.1.11-.24.16-.41.16h-1.88c-1.41,0-2.46-.37-3.17-1.1Z"/>
            <path class="cls-58" d="m599.03,139.89c-.66-.32-1.18-.75-1.56-1.29s-.57-1.14-.57-1.78c0-1.05.42-1.9,1.28-2.55.85-.65,2.02-1.09,3.5-1.32l3.18-.46v-.49c0-.68-.17-1.19-.51-1.53-.34-.34-.89-.51-1.65-.51-.51,0-.92.1-1.24.29-.32.19-.57.38-.75.57-.19.2-.31.33-.37.39-.06.19-.18.28-.35.28h-1.79c-.14,0-.26-.05-.36-.14-.1-.09-.15-.22-.15-.37.01-.39.21-.83.57-1.32.36-.49.92-.92,1.68-1.27.76-.35,1.69-.53,2.79-.53,1.83,0,3.16.41,3.99,1.23.83.82,1.25,1.89,1.25,3.22v7.28c0,.15-.05.29-.15.39-.1.11-.24.16-.41.16h-1.88c-.15,0-.29-.05-.39-.16-.11-.11-.16-.24-.16-.39v-.9c-.34.49-.82.9-1.45,1.22s-1.4.48-2.33.48c-.79,0-1.51-.16-2.17-.48Zm5.05-2.56c.54-.56.81-1.37.81-2.43v-.49l-2.32.37c-.9.14-1.58.36-2.03.67-.46.31-.68.69-.68,1.14,0,.49.21.88.63,1.16.42.28.92.42,1.51.42.85,0,1.55-.28,2.09-.83Z"/>
            <path class="cls-58" d="m610.18,139.97c-.11-.11-.16-.24-.16-.39v-10.94c0-.15.05-.29.16-.39s.24-.16.39-.16h1.9c.15,0,.29.05.39.16.11.11.16.24.16.39v.95c.91-1.16,2.21-1.74,3.88-1.74,1.42,0,2.55.47,3.39,1.4.84.94,1.25,2.21,1.25,3.81v6.51c0,.15-.05.29-.15.39-.1.11-.24.16-.41.16h-2.04c-.16,0-.29-.05-.4-.16-.11-.11-.16-.24-.16-.39v-6.37c0-.91-.22-1.62-.66-2.12-.44-.5-1.08-.75-1.92-.75s-1.47.25-1.94.76c-.47.51-.71,1.21-.71,2.11v6.37c0,.15-.05.29-.15.39-.1.11-.24.16-.41.16h-2.04c-.15,0-.29-.05-.39-.16Z"/>
            <path class="cls-58" d="m623.64,125.92c-.11-.11-.16-.24-.16-.39v-1.67c0-.15.05-.29.16-.39.11-.11.24-.16.39-.16h2.11c.16,0,.29.05.41.16.12.11.17.24.17.39v1.67c0,.15-.05.29-.16.39s-.25.16-.42.16h-2.11c-.15,0-.29-.05-.39-.16Zm.09,14.04c-.11-.11-.16-.24-.16-.39v-10.94c0-.15.05-.29.16-.39s.24-.16.39-.16h1.93c.17,0,.31.05.41.15.1.1.15.24.15.41v10.94c0,.15-.05.29-.15.39-.1.11-.24.16-.41.16h-1.93c-.15,0-.29-.05-.39-.16Z"/>
            <path class="cls-58" d="m636.62,139.97c-.11-.11-.16-.24-.16-.39v-12.82h-4.29c-.15,0-.29-.05-.39-.16-.11-.11-.16-.24-.16-.39v-1.71c0-.17.05-.31.15-.42s.24-.16.41-.16h11.84c.17,0,.31.05.42.16s.16.25.16.42v1.71c0,.15-.05.29-.16.39-.11.11-.25.16-.42.16h-4.27v12.82c0,.15-.05.29-.16.39-.11.11-.25.16-.42.16h-2.14c-.15,0-.29-.05-.39-.16Z"/>
            <path class="cls-58" d="m644.97,139.89c-.66-.32-1.18-.75-1.56-1.29s-.57-1.14-.57-1.78c0-1.05.42-1.9,1.28-2.55.85-.65,2.02-1.09,3.5-1.32l3.18-.46v-.49c0-.68-.17-1.19-.51-1.53-.34-.34-.89-.51-1.65-.51-.51,0-.92.1-1.24.29-.32.19-.57.38-.75.57-.19.2-.31.33-.37.39-.06.19-.18.28-.35.28h-1.79c-.14,0-.26-.05-.36-.14-.1-.09-.15-.22-.15-.37.01-.39.21-.83.57-1.32.36-.49.92-.92,1.68-1.27.76-.35,1.69-.53,2.79-.53,1.83,0,3.16.41,3.99,1.23.83.82,1.25,1.89,1.25,3.22v7.28c0,.15-.05.29-.15.39-.1.11-.24.16-.41.16h-1.88c-.15,0-.29-.05-.39-.16-.11-.11-.16-.24-.16-.39v-.9c-.34.49-.82.9-1.45,1.22s-1.4.48-2.33.48c-.79,0-1.51-.16-2.17-.48Zm5.05-2.56c.54-.56.81-1.37.81-2.43v-.49l-2.32.37c-.9.14-1.58.36-2.03.67-.46.31-.68.69-.68,1.14,0,.49.21.88.63,1.16.42.28.92.42,1.51.42.85,0,1.55-.28,2.09-.83Zm-2.95-11.35c0-.12.04-.22.12-.3l1.88-2.29c.15-.17.29-.28.41-.34s.27-.08.45-.08h2.32c.29,0,.44.15.44.44,0,.11-.04.2-.12.28l-2.88,2.36c-.14.11-.27.19-.38.23-.12.05-.27.07-.45.07h-1.42c-.25,0-.37-.12-.37-.37Z"/>
            <path class="cls-58" d="m656.12,139.97c-.11-.11-.16-.24-.16-.39v-10.92c0-.15.05-.29.16-.41.11-.12.24-.17.39-.17h1.88c.17,0,.31.05.42.16.11.11.16.25.16.42v.95c.37-.49.84-.87,1.4-1.14.56-.26,1.21-.39,1.94-.39h.95c.17,0,.3.05.41.15.1.1.15.24.15.41v1.67c0,.15-.05.29-.15.39-.1.11-.24.16-.41.16h-1.81c-.73,0-1.3.21-1.72.63-.42.42-.63.99-.63,1.71v6.37c0,.15-.05.29-.16.39-.11.11-.25.16-.42.16h-2.02c-.15,0-.29-.05-.39-.16Z"/>
            <path class="cls-58" d="m666.36,139.84c-.79-.35-1.37-.76-1.75-1.23-.38-.47-.57-.88-.57-1.22,0-.15.05-.28.16-.37s.23-.14.37-.14h1.83c.14,0,.26.05.35.16.06.05.22.19.49.42.26.25.57.44.93.58.36.14.75.21,1.18.21.62,0,1.13-.12,1.53-.37.4-.25.6-.59.6-1.02,0-.32-.09-.59-.27-.79-.18-.2-.5-.38-.96-.54s-1.15-.34-2.07-.52c-1.32-.28-2.29-.7-2.91-1.27-.63-.57-.94-1.33-.94-2.27,0-.62.19-1.2.56-1.75.37-.55.92-1,1.66-1.34.73-.35,1.61-.52,2.63-.52s1.93.17,2.69.5c.76.33,1.33.73,1.73,1.18s.59.86.59,1.22c0,.14-.05.26-.15.36-.1.1-.22.15-.36.15h-1.72c-.12,0-.25-.05-.39-.16-.11-.08-.28-.22-.51-.44s-.5-.39-.81-.51c-.31-.12-.67-.19-1.09-.19-.57,0-1.02.12-1.33.37-.32.25-.48.57-.48.97,0,.29.08.53.23.72.16.19.46.36.91.53.45.17,1.12.34,2.02.51,1.49.29,2.55.75,3.19,1.37.64.62.96,1.38.96,2.27,0,1.08-.47,1.96-1.42,2.64-.94.68-2.27,1.02-3.97,1.02-1.16,0-2.14-.17-2.92-.52Z"/>
            <path class="cls-58" d="m677.46,139.89c-.66-.32-1.18-.75-1.56-1.29s-.57-1.14-.57-1.78c0-1.05.42-1.9,1.28-2.55.85-.65,2.02-1.09,3.5-1.32l3.18-.46v-.49c0-.68-.17-1.19-.51-1.53-.34-.34-.89-.51-1.65-.51-.51,0-.92.1-1.24.29-.32.19-.57.38-.75.57-.19.2-.31.33-.37.39-.06.19-.18.28-.35.28h-1.79c-.14,0-.26-.05-.36-.14-.1-.09-.15-.22-.15-.37.01-.39.21-.83.57-1.32.36-.49.92-.92,1.68-1.27.76-.35,1.69-.53,2.79-.53,1.83,0,3.16.41,3.99,1.23.83.82,1.25,1.89,1.25,3.22v7.28c0,.15-.05.29-.15.39-.1.11-.24.16-.41.16h-1.88c-.15,0-.29-.05-.39-.16-.11-.11-.16-.24-.16-.39v-.9c-.34.49-.82.9-1.45,1.22s-1.4.48-2.33.48c-.79,0-1.51-.16-2.17-.48Zm5.05-2.56c.54-.56.81-1.37.81-2.43v-.49l-2.32.37c-.9.14-1.58.36-2.03.67-.46.31-.68.69-.68,1.14,0,.49.21.88.63,1.16.42.28.92.42,1.51.42.85,0,1.55-.28,2.09-.83Z"/>
            <path class="cls-58" d="m690.11,139.84c-.79-.35-1.37-.76-1.75-1.23-.38-.47-.57-.88-.57-1.22,0-.15.05-.28.16-.37s.23-.14.37-.14h1.83c.14,0,.26.05.35.16.06.05.22.19.49.42.26.25.57.44.93.58.36.14.75.21,1.18.21.62,0,1.13-.12,1.53-.37.4-.25.6-.59.6-1.02,0-.32-.09-.59-.27-.79-.18-.2-.5-.38-.96-.54s-1.15-.34-2.07-.52c-1.32-.28-2.29-.7-2.91-1.27-.63-.57-.94-1.33-.94-2.27,0-.62.19-1.2.56-1.75.37-.55.92-1,1.66-1.34.73-.35,1.61-.52,2.63-.52s1.93.17,2.69.5c.76.33,1.33.73,1.73,1.18s.59.86.59,1.22c0,.14-.05.26-.15.36-.1.1-.22.15-.36.15h-1.72c-.12,0-.25-.05-.39-.16-.11-.08-.28-.22-.51-.44s-.5-.39-.81-.51c-.31-.12-.67-.19-1.09-.19-.57,0-1.02.12-1.33.37-.32.25-.48.57-.48.97,0,.29.08.53.23.72.16.19.46.36.91.53.45.17,1.12.34,2.02.51,1.49.29,2.55.75,3.19,1.37.64.62.96,1.38.96,2.27,0,1.08-.47,1.96-1.42,2.64-.94.68-2.27,1.02-3.97,1.02-1.16,0-2.14-.17-2.92-.52Z"/>
            <path class="cls-58" d="m701.21,139.89c-.66-.32-1.18-.75-1.56-1.29s-.57-1.14-.57-1.78c0-1.05.42-1.9,1.28-2.55.85-.65,2.02-1.09,3.5-1.32l3.18-.46v-.49c0-.68-.17-1.19-.51-1.53-.34-.34-.89-.51-1.65-.51-.51,0-.92.1-1.24.29-.32.19-.57.38-.75.57-.19.2-.31.33-.37.39-.06.19-.18.28-.35.28h-1.79c-.14,0-.26-.05-.36-.14-.1-.09-.15-.22-.15-.37.01-.39.21-.83.57-1.32.36-.49.92-.92,1.68-1.27.76-.35,1.69-.53,2.79-.53,1.83,0,3.16.41,3.99,1.23.83.82,1.25,1.89,1.25,3.22v7.28c0,.15-.05.29-.15.39-.1.11-.24.16-.41.16h-1.88c-.15,0-.29-.05-.39-.16-.11-.11-.16-.24-.16-.39v-.9c-.34.49-.82.9-1.45,1.22s-1.4.48-2.33.48c-.79,0-1.51-.16-2.17-.48Zm5.05-2.56c.54-.56.81-1.37.81-2.43v-.49l-2.32.37c-.9.14-1.58.36-2.03.67-.46.31-.68.69-.68,1.14,0,.49.21.88.63,1.16.42.28.92.42,1.51.42.85,0,1.55-.28,2.09-.83Zm-2.95-11.35c0-.12.04-.22.12-.3l1.88-2.29c.15-.17.29-.28.41-.34s.27-.08.45-.08h2.32c.29,0,.44.15.44.44,0,.11-.04.2-.12.28l-2.88,2.36c-.14.11-.27.19-.38.23-.12.05-.27.07-.45.07h-1.42c-.25,0-.37-.12-.37-.37Z"/>
            <path class="cls-58" d="m714.32,144.55c-.85-.46-1.46-.98-1.81-1.56-.36-.59-.53-1.09-.53-1.51,0-.14.06-.26.17-.37.12-.11.24-.16.38-.16h2.02c.14,0,.26.03.36.1.1.07.18.2.24.38.15.42.41.77.75,1.05.35.29.89.43,1.64.43.93,0,1.61-.21,2.05-.63.44-.42.66-1.14.66-2.16v-1.58c-.85,1-2.04,1.51-3.57,1.51-1.61,0-2.82-.49-3.63-1.48-.81-.99-1.25-2.32-1.31-3.99l-.02-.63.02-.63c.06-1.64.5-2.96,1.32-3.97s2.03-1.52,3.62-1.52c.82,0,1.54.15,2.16.46s1.14.73,1.56,1.27v-.93c0-.17.05-.31.16-.42s.24-.16.39-.16h1.88c.15,0,.29.06.39.17.11.12.16.25.16.41l.02,11.17c0,1.71-.48,3.04-1.44,3.99-.96.94-2.4,1.41-4.32,1.41-1.38,0-2.49-.23-3.34-.68Zm5.21-7.77c.44-.56.68-1.24.73-2.04.02-.12.02-.38.02-.77s0-.62-.02-.74c-.05-.82-.29-1.51-.73-2.06-.44-.56-1.1-.83-1.99-.83-1.67,0-2.55,1.03-2.65,3.08l-.02.56c0,1.1.2,1.98.59,2.64.39.66,1.09,1,2.08,1,.88,0,1.54-.28,1.99-.83Z"/>
          </g>
          <line class="cls-59" x1="295.57" y1="161.83" x2="725.26" y2="161.83"/>
          <g>
            <g>
              <path class="cls-58" d="m486.59,247.62c0,3.16-.8,5.5-2.4,7-1.6,1.51-3.86,2.26-6.76,2.26s-5.27-.75-6.87-2.26c-1.6-1.51-2.4-3.84-2.4-7s.8-5.52,2.4-6.97c1.6-1.45,3.89-2.18,6.87-2.18s5.39.72,6.9,2.18c1.51,1.45,2.26,3.78,2.26,6.97Z"/>
              <path class="cls-58" d="m528.24,238.81c-1.08,0-2.01-.2-2.77-.61-.76-.41-1.42-.93-1.98-1.56-.56-.63-1.03-1.34-1.43-2.12-.39-.78-.72-1.54-.98-2.29l-10.62-30.58h-1.45v46.53c0,1.19-.07,2.31-.22,3.35-.15,1.04-.47,1.96-.98,2.76-.5.8-1.25,1.43-2.24,1.9-.99.47-2.34.7-4.05.7-1.94,0-3.47-.23-4.58-.7-1.12-.46-1.96-1.1-2.52-1.9-.56-.8-.91-1.72-1.06-2.76-.15-1.04-.22-2.16-.22-3.35v-56.69c0-1.6.05-3.16.14-4.69.09-1.52.4-2.88.92-4.07.52-1.19,1.35-2.15,2.49-2.87,1.14-.73,2.75-1.09,4.84-1.09h7.6c1.27,0,2.34.05,3.21.14.88.09,1.69.41,2.43.95.74.54,1.48,1.4,2.21,2.59.73,1.19,1.53,2.87,2.4,5.05.87,2.18,1.89,4.95,3.04,8.31,1.15,3.37,2.57,7.5,4.25,12.41l1.45,4.46h1.34l1.79-5.58c1.53-4.69,2.83-8.65,3.91-11.89,1.08-3.24,2.03-5.9,2.85-8.01.82-2.1,1.56-3.72,2.21-4.85.65-1.13,1.34-1.97,2.07-2.51.73-.54,1.52-.86,2.38-.95.86-.09,1.9-.14,3.13-.14h8.16c2.09,0,3.7.36,4.84,1.09,1.14.72,1.96,1.68,2.49,2.87.52,1.19.83,2.55.92,4.07.09,1.53.14,3.09.14,4.69v56.69c0,1.19-.07,2.31-.22,3.35-.15,1.04-.5,1.96-1.06,2.76-.56.8-1.4,1.43-2.52,1.9-1.12.47-2.65.7-4.58.7-1.71,0-3.06-.23-4.05-.7-.99-.46-1.73-1.1-2.24-1.9-.5-.8-.83-1.72-.98-2.76-.15-1.04-.22-2.16-.22-3.35v-46.53h-1.56l-10.51,30.58c-.3.74-.63,1.51-1.01,2.29s-.84,1.49-1.4,2.12c-.56.63-1.21,1.15-1.96,1.56-.75.41-1.64.61-2.68.61h-1.12Z"/>
              <path class="cls-58" d="m602.3,178.77c1.49,0,3,.06,4.53.17,1.53.11,2.91.43,4.14.95,1.23.52,2.23,1.31,3.02,2.37.78,1.06,1.17,2.54,1.17,4.44s-.39,3.38-1.17,4.44c-.78,1.06-1.79,1.85-3.02,2.37-1.23.52-2.61.84-4.14.95-1.53.11-3.04.17-4.53.17h-13.3v15.18h7.04c1.49,0,2.99.05,4.5.14s2.85.39,4.02.89c1.17.5,2.13,1.26,2.88,2.29.75,1.02,1.12,2.45,1.12,4.27s-.37,3.29-1.12,4.3c-.74,1-1.7,1.76-2.88,2.26-1.17.5-2.52.8-4.02.89s-3.01.14-4.5.14h-7.04v16.07h13.3c1.49,0,3,.06,4.53.17,1.53.11,2.91.42,4.14.92,1.23.5,2.23,1.28,3.02,2.34.78,1.06,1.17,2.52,1.17,4.38s-.4,3.44-1.2,4.52c-.8,1.08-1.82,1.88-3.05,2.4-1.23.52-2.61.84-4.14.95-1.53.11-3.02.17-4.47.17h-21.91c-2.09,0-3.7-.37-4.83-1.12-1.14-.74-1.97-1.72-2.49-2.93-.52-1.21-.83-2.58-.92-4.1-.09-1.53-.14-3.09-.14-4.69v-52.45c0-1.6.05-3.16.14-4.69.09-1.53.4-2.89.92-4.1.52-1.21,1.35-2.18,2.49-2.93,1.14-.74,2.75-1.12,4.83-1.12h21.91Z"/>
              <path class="cls-58" d="m661.15,178.77c1.49,0,2.99.06,4.5.17,1.51.11,2.88.43,4.11.95,1.23.52,2.23,1.31,2.99,2.37.76,1.06,1.15,2.54,1.15,4.44s-.38,3.32-1.15,4.38c-.77,1.06-1.76,1.85-2.99,2.37-1.23.52-2.6.85-4.11.98-1.51.13-3.01.2-4.5.2h-5.7v49.55c0,1.6-.05,3.16-.14,4.69-.09,1.53-.4,2.88-.92,4.07-.52,1.19-1.36,2.15-2.52,2.87-1.16.73-2.8,1.09-4.92,1.09s-3.76-.36-4.92-1.09c-1.15-.73-1.99-1.68-2.52-2.87-.52-1.19-.83-2.55-.92-4.07-.1-1.52-.14-3.09-.14-4.69v-49.55h-5.7c-1.49,0-2.99-.06-4.5-.2-1.51-.13-2.88-.45-4.11-.98-1.23-.52-2.23-1.31-2.99-2.37-.76-1.06-1.15-2.52-1.15-4.38s.38-3.38,1.15-4.44c.76-1.06,1.76-1.85,2.99-2.37,1.23-.52,2.6-.84,4.11-.95,1.51-.11,3.01-.17,4.5-.17h28.39Z"/>
              <path class="cls-58" d="m722.13,228.65c.07,2.53.17,5.12.28,7.76.11,2.64.17,5.19.17,7.64v1.67c0,1.41-.05,2.78-.14,4.1-.1,1.32-.38,2.51-.87,3.57-.48,1.06-1.25,1.91-2.29,2.54-1.04.63-2.51.95-4.41.95s-3.43-.32-4.47-.95c-1.05-.63-1.82-1.47-2.32-2.51s-.8-2.23-.89-3.57c-.09-1.34-.14-2.71-.14-4.13v-7.81h-22.35v7.81c0,1.41-.05,2.79-.14,4.13-.09,1.34-.39,2.53-.89,3.57-.5,1.04-1.28,1.88-2.32,2.51-1.04.63-2.53.95-4.47.95s-3.43-.32-4.47-.95c-1.04-.63-1.81-1.48-2.29-2.54-.48-1.06-.77-2.25-.84-3.57-.07-1.32-.11-2.69-.11-4.1v-1.67c0-1.15,0-2.38.03-3.68.02-1.3.05-2.62.08-3.96.04-1.34.07-2.67.11-3.99.04-1.32.07-2.58.11-3.77,1.86-6.47,3.82-13.03,5.87-19.67,2.05-6.64,4-13.21,5.87-19.72.37-1.38.82-2.71,1.34-3.99s1.21-2.4,2.07-3.35c.86-.95,1.96-1.71,3.3-2.29,1.34-.58,3.05-.86,5.14-.86h5.59c2.05,0,3.75.29,5.11.86,1.36.58,2.47,1.34,3.32,2.29.86.95,1.54,2.06,2.04,3.35.5,1.28.96,2.61,1.37,3.99l11.62,39.39Zm-35.1-5.47h17.77l-8.27-29.91h-1.23l-8.27,29.91Z"/>
            </g>
            <g>
              <path class="cls-58" d="m315.3,216.85l-14.09-21.35c-.82-1.23-1.57-2.46-2.24-3.69-.56-1.01-1.07-2.07-1.54-3.19-.47-1.12-.7-2.07-.7-2.85,0-1.01.29-2.03.87-3.07.58-1.04,1.59-1.99,3.05-2.85,1.68-.89,3.2-1.34,4.58-1.34,1.04,0,2,.23,2.88.7.88.47,1.68,1.08,2.4,1.84s1.41,1.63,2.04,2.6,1.25,1.94,1.84,2.91l10.4,17.1h1.68l10.4-17.1c.6-.97,1.21-1.94,1.84-2.91.63-.97,1.31-1.84,2.04-2.6s1.52-1.38,2.38-1.84,1.83-.7,2.91-.7c.67,0,1.39.13,2.15.39s1.57.61,2.43,1.06c1.57.86,2.65,1.78,3.24,2.77.6.99.89,1.97.89,2.93,0,.82-.24,1.79-.73,2.91-.48,1.12-1.02,2.2-1.62,3.24-.67,1.23-1.45,2.46-2.35,3.69l-13.97,21.35v1.01l15.54,24.48c.78,1.23,1.46,2.45,2.04,3.66.58,1.21.87,2.41.87,3.61,0,1.01-.27,2-.81,2.99-.54.99-1.54,1.93-2.99,2.82-1.68.89-3.2,1.34-4.58,1.34-.97,0-1.84-.2-2.63-.59s-1.51-.9-2.18-1.54-1.29-1.36-1.87-2.18-1.15-1.66-1.7-2.52l-11.29-18.33h-1.68l-11.29,18.33c-.56.86-1.13,1.7-1.7,2.52-.58.82-1.19,1.55-1.84,2.18s-1.37,1.15-2.15,1.54c-.78.39-1.64.59-2.57.59-1.42,0-2.91-.45-4.47-1.34-1.53-.89-2.58-1.84-3.16-2.82-.58-.99-.87-1.98-.87-2.99,0-1.19.29-2.39.87-3.61.58-1.21,1.26-2.43,2.04-3.66l15.65-24.48v-1.01Z"/>
              <path class="cls-58" d="m418.11,191.36c0-1.6.08-3.17.25-4.7s.56-2.9,1.17-4.11,1.54-2.19,2.77-2.93c1.23-.75,2.93-1.12,5.09-1.12s3.86.37,5.09,1.12,2.15,1.72,2.77,2.93,1.01,2.58,1.17,4.11c.17,1.53.25,3.09.25,4.7v52.54c0,1.64-.07,3.22-.22,4.75-.15,1.53-.53,2.9-1.15,4.11s-1.55,2.18-2.79,2.91-2.95,1.09-5.11,1.09-3.86-.36-5.09-1.09c-1.23-.73-2.15-1.7-2.77-2.91-.61-1.21-1.01-2.58-1.17-4.11s-.25-3.11-.25-4.75v-52.54Z"/>
              <path class="cls-58" d="m443.91,191.36c0-1.6.08-3.17.25-4.7.17-1.53.56-2.9,1.17-4.11s1.54-2.19,2.77-2.93c1.23-.75,2.93-1.12,5.09-1.12s3.86.37,5.09,1.12,2.15,1.72,2.77,2.93,1.01,2.58,1.17,4.11c.17,1.53.25,3.09.25,4.7v52.54c0,1.64-.07,3.22-.22,4.75-.15,1.53-.53,2.9-1.15,4.11-.61,1.21-1.55,2.18-2.79,2.91s-2.95,1.09-5.11,1.09-3.86-.36-5.09-1.09c-1.23-.73-2.15-1.7-2.77-2.91-.61-1.21-1.01-2.58-1.17-4.11-.17-1.53-.25-3.11-.25-4.75v-52.54Z"/>
              <path class="cls-58" d="m404.27,178.5c1.08,0,2.12.19,3.13.56s1.89.88,2.65,1.51c.76.63,1.37,1.39,1.82,2.26.45.88.67,1.82.67,2.82,0,.48-.03.94-.08,1.37s-.12.81-.2,1.15c-.11.41-.2.76-.28,1.06-2.53,9.95-5.18,20.09-7.94,30.43-2.76,10.34-5.4,20.47-7.94,30.38-.56,1.27-1.3,2.38-2.24,3.35-.78.86-1.8,1.63-3.05,2.32-1.25.69-2.8,1.03-4.67,1.03h-1.79c-1.86,0-3.43-.34-4.7-1.03-1.27-.69-2.29-1.46-3.07-2.32-.93-.97-1.66-2.09-2.18-3.35l-15.87-60.81c-.11-.3-.2-.65-.28-1.06-.19-.75-.28-1.58-.28-2.52,0-1.01.21-1.95.64-2.82.43-.88,1.02-1.63,1.76-2.26.75-.63,1.62-1.14,2.63-1.51s2.09-.56,3.24-.56c1.79,0,3.23.39,4.33,1.17,1.1.78,1.97,1.66,2.6,2.63.71,1.12,1.23,2.38,1.57,3.8.45,1.79.93,3.81,1.45,6.06.52,2.25,1.04,4.59,1.57,7.01.52,2.42,1.05,4.89,1.59,7.41.54,2.52,1.05,4.95,1.54,7.29,1.16,5.51,2.31,11.16,3.47,16.94h1.79c1.27-5.78,2.5-11.42,3.69-16.94.48-2.35,1-4.78,1.54-7.29.54-2.52,1.07-4.98,1.59-7.41.52-2.42,1.02-4.76,1.51-7.01.48-2.25.91-4.28,1.29-6.06.37-1.42.91-2.68,1.62-3.8.63-.97,1.49-1.84,2.57-2.63s2.52-1.17,4.3-1.17Z"/>
            </g>
          </g>
        </g>
        <text class="cls-62" transform="translate(365.44 371.44)"><tspan class="cls-9" x="0" y="0">2023. OK</tspan><tspan class="cls-63" x="147.78" y="0">T</tspan><tspan class="cls-10" x="167.79" y="0">BER </tspan><tspan class="cls-8" x="264.04" y="0">9</tspan><tspan class="cls-10" x="283.24" y="0">.</tspan></text>
      </g>
      <text class="cls-61" transform="translate(298.89 401.61)"><tspan class="cls-65" x="0" y="0">BU</tspan><tspan class="cls-68" x="31.97" y="0">D</tspan><tspan class="cls-66" x="47.75" y="0">APE</tspan><tspan class="cls-64" x="93.22" y="0">S</tspan><tspan class="cls-67" x="107.9" y="0">T</tspan><tspan class="cls-65" x="120.74" y="0">, </tspan><tspan class="cls-2" x="134.6" y="0">D</tspan><tspan class="cls-4" x="149.91" y="0">ANUBIUS H</tspan><tspan class="cls-6" x="271.55" y="0">O</tspan><tspan class="cls-5" x="286.45" y="0">TE</tspan><tspan class="cls-7" x="313.42" y="0">L</tspan><tspan class="cls-5" x="325.84" y="0" xml:space="preserve"> HELI</tspan><tspan class="cls-3" x="382.81" y="0">A</tspan><tspan class="cls-1" x="396.57" y="0">****</tspan></text>
    </g>
  </g>
</svg>